<svg width="241" height="188" viewBox="0 0 241 188" fill="none" xmlns="http://www.w3.org/2000/svg">
<g clip-path="url(#clip0_152_1503)">
<g filter="url(#filter0_i_152_1503)">
<path d="M139.062 101.574C139.059 104.339 137.155 106.99 133.769 108.945C130.382 110.9 125.79 111.999 121 112.001L104.387 112.011L176.072 153.395C179.461 155.351 181.365 158.005 181.365 160.772C181.365 163.54 179.461 166.193 176.072 168.15C172.682 170.107 168.085 171.206 163.292 171.206C158.499 171.206 153.902 170.107 150.513 168.15L78.8281 126.766L78.8366 136.352C78.8366 139.12 76.9319 141.775 73.5415 143.732C70.151 145.69 65.5526 146.789 60.7579 146.789C55.9631 146.789 51.3647 145.69 47.9743 143.732C44.5838 141.775 42.6791 139.12 42.6791 136.352L42.6877 101.574C42.6884 98.8071 44.5924 96.154 47.9811 94.1977C51.3698 92.2414 55.9656 91.1421 60.7579 91.1417L121 91.1368C123.375 91.1364 125.726 91.406 127.92 91.9304C130.113 92.4547 132.107 93.2235 133.786 94.1927C135.465 95.162 136.796 96.3127 137.705 97.5792C138.613 98.8457 139.08 100.203 139.079 101.574L139.062 101.574ZM274.354 91.1466C278.827 91.1455 283.141 92.1018 286.463 93.8307C289.785 95.5595 291.879 97.9381 292.339 100.506L292.433 101.574L292.425 136.352C292.424 138.934 290.766 141.424 287.769 143.341C284.773 145.258 280.652 146.466 276.203 146.73L274.354 146.784L214.112 146.789C209.456 146.809 204.966 145.791 201.579 143.946C198.192 142.102 196.168 139.574 195.93 136.89C195.691 134.206 197.257 131.572 200.3 129.537C203.343 127.503 207.628 126.225 212.263 125.969L214.112 125.915L230.717 125.92L159.032 84.5362C155.711 82.6453 153.785 80.0863 153.657 77.3944C153.529 74.7026 155.208 72.0863 158.344 70.0929C161.48 68.0995 165.83 66.8833 170.484 66.6986C175.137 66.5139 179.734 67.3751 183.313 69.1021L184.591 69.7808L256.276 111.165L256.276 101.574C256.275 100.203 256.742 98.8457 257.65 97.5792C258.559 96.3127 259.89 95.162 261.569 94.1927C263.248 93.2235 265.241 92.4547 267.435 91.9304C269.629 91.406 271.98 91.1364 274.354 91.1368L274.354 91.1466Z" fill="#E0F3FD" fill-opacity="0.4"/>
</g>
</g>
<defs>
<filter id="filter0_i_152_1503" x="42.6791" y="66.674" width="249.754" height="116.221" filterUnits="userSpaceOnUse" color-interpolation-filters="sRGB">
<feFlood flood-opacity="0" result="BackgroundImageFix"/>
<feBlend mode="normal" in="SourceGraphic" in2="BackgroundImageFix" result="shape"/>
<feColorMatrix in="SourceAlpha" type="matrix" values="0 0 0 0 0 0 0 0 0 0 0 0 0 0 0 0 0 0 127 0" result="hardAlpha"/>
<feOffset dy="11.6892"/>
<feGaussianBlur stdDeviation="46.7569"/>
<feComposite in2="hardAlpha" operator="arithmetic" k2="-1" k3="1"/>
<feColorMatrix type="matrix" values="0 0 0 0 0.00392157 0 0 0 0 0.105882 0 0 0 0 0.2 0 0 0 1 0"/>
<feBlend mode="normal" in2="shape" result="effect1_innerShadow_152_1503"/>
</filter>
<clipPath id="clip0_152_1503">
<rect width="236.1" height="236.1" fill="white" transform="matrix(0.866041 0.499972 -0.866041 0.499972 204.923 0.941528)"/>
</clipPath>
</defs>
</svg>
